<?xml version="1.0" standalone="no"?>
<!DOCTYPE svg PUBLIC "-//W3C//DTD SVG 20010904//EN"
 "http://www.w3.org/TR/2001/REC-SVG-20010904/DTD/svg10.dtd">
<svg version="1.0" xmlns="http://www.w3.org/2000/svg"
 width="183.000000pt" height="44.000000pt" viewBox="0 0 183.000000 44.000000"
 preserveAspectRatio="xMidYMid meet">

<g transform="translate(0.000000,44.000000) scale(0.100000,-0.100000)"
fill="#000000" stroke="none">
<path d="M470 237 c0 -59 16 -87 50 -87 34 0 50 28 50 86 0 30 -4 54 -10 54
-5 0 -10 -22 -10 -49 0 -32 -5 -53 -15 -61 -23 -19 -33 -3 -37 54 -4 72 -28
74 -28 3z"/>
<path d="M624 282 c-39 -25 -40 -103 -2 -123 23 -12 68 -4 68 12 0 7 -9 9 -22
6 -29 -8 -48 9 -48 43 0 30 23 56 40 45 5 -3 15 -3 21 1 8 4 7 9 -2 15 -17 11
-40 11 -55 1z"/>
<path d="M705 243 c10 -76 16 -93 31 -93 7 0 16 12 20 28 13 64 21 69 28 19 6
-38 11 -47 24 -45 12 2 20 21 29 68 6 36 10 67 8 69 -9 8 -25 -12 -25 -32 0
-12 -3 -33 -7 -47 -6 -22 -8 -19 -17 24 -14 61 -32 70 -41 19 -9 -54 -25 -77
-25 -38 0 41 -10 75 -22 75 -6 0 -8 -18 -3 -47z"/>
<path d="M877 272 c-23 -25 -22 -85 1 -105 41 -37 92 -7 92 55 0 59 -57 90
-93 50z m65 -27 c8 -19 8 -31 0 -50 -13 -29 -24 -31 -46 -9 -19 18 -20 38 -6
65 15 26 38 24 52 -6z"/>
<path d="M1000 220 c0 -40 4 -70 10 -70 6 0 10 11 10 25 0 33 13 32 38 -2 24
-34 38 -26 21 11 -10 20 -10 29 -1 38 28 28 -2 68 -49 68 l-29 0 0 -70z m55
25 c0 -11 -8 -21 -17 -23 -14 -3 -18 3 -18 23 0 20 4 26 18 23 9 -2 17 -12 17
-23z"/>
<path d="M1110 221 c0 -42 4 -71 10 -71 6 0 13 7 15 15 16 51 15 51 37 17 11
-17 24 -32 29 -32 13 0 11 9 -12 47 -20 32 -20 35 -4 59 24 37 8 45 -20 10
-23 -29 -23 -29 -27 -6 -1 13 -9 25 -15 28 -10 3 -13 -15 -13 -67z"/>
<path d="M1232 278 c-21 -21 -13 -47 19 -63 36 -19 33 -41 -5 -37 -14 1 -26
-2 -26 -7 0 -16 46 -24 69 -11 30 16 26 48 -9 68 -38 22 -41 47 -4 38 19 -5
25 -3 22 6 -6 18 -50 22 -66 6z"/>
<path d="M328 227 c3 -61 -20 -106 -70 -137 l-33 -20 30 0 c17 1 41 7 55 15
14 8 37 14 53 15 28 0 37 17 13 26 -10 4 -12 16 -9 43 3 24 -1 49 -11 69 -24
47 -31 45 -28 -11z"/>
<path d="M187 203 c-12 -11 -8 -23 8 -23 8 0 15 7 15 15 0 16 -12 20 -23 8z"/>
<path d="M270 196 c0 -9 7 -16 16 -16 9 0 14 5 12 12 -6 18 -28 21 -28 4z"/>
</g>
</svg>
